<svg version="1.1" xmlns="http://www.w3.org/2000/svg" viewBox="-233.7 -1709.6375 10499.054102211287 2903.775"><desc>Created with Snap</desc><defs></defs><g><g transform="matrix(24.7033,0,0,24.7033,7972.153,-1511.0083)"><g><path fill="#195190" d="M27.984,42.838C45.23,25.729,47.746,11.361,41.939,4.395c0,0,43.898,18.04,18.077,59.882   c-4.42,7.105-15.459,15.498-9.688,32.793C50.327,97.07-4.908,81.605,27.984,42.838z" style=""></path><path fill="#195190" d="M54.645,96.217c-0.944-3.51-5.154-11.154,7.686-26.359c6.861-8.104,11.557-25.906,9.27-30.157   c0,0,21.914,28.944-3.447,46.278C53.117,96.283,54.645,96.217,54.645,96.217z" style=""></path></g><desc>Created with Snap</desc><defs></defs></g><g><g transform="matrix(0.5,0,0,-0.5,0,0)"><path d="M720 1341L324 1341L324 841Q365 841 493 839Q622 837 692 837Q883 837 958 900Q1033 964 1033 1102Q1033 1223 961 1282Q889 1341 720 1341ZM1030 522L1272 0L1072 0L868 464Q785 651 762 689Q689 684 589 684L324 692L324 0L147 0L147 1496L620 1496Q702 1496 765 1492Q828 1488 890 1477Q953 1467 999 1448Q1045 1430 1085 1400Q1125 1371 1149 1330Q1174 1289 1188 1232Q1202 1176 1202 1105Q1202 965 1128 864Q1055 763 920 724Q920 722 940 688Q960 654 987 604Q1015 555 1030 522ZM2114 894Q2041 982 1913 982Q1785 982 1704 891Q1623 801 1609 644L2188 644Q2188 807 2114 894ZM1946 -23Q1707 -23 1569 129Q1432 281 1432 545Q1432 800 1565 958Q1698 1117 1915 1120Q2119 1120 2238 980Q2358 841 2358 608Q2358 596 2357 564Q2357 532 2357 518L1604 518Q1607 331 1700 226Q1794 122 1952 122Q2126 122 2301 214L2327 79Q2160 -23 1946 -23ZM2907 112Q3026 112 3116 177Q3207 243 3233 354L3233 539Q3228 539 3172 534Q3117 529 3100 528Q2883 509 2797 457Q2712 405 2712 290Q2712 202 2764 157Q2816 112 2907 112ZM3400 0L3270 0Q3255 64 3241 138Q3150 47 3070 12Q2990 -23 2882 -23Q2728 -23 2634 57Q2541 138 2541 289Q2541 457 2668 538Q2796 619 3036 639Q3069 642 3135 647Q3202 653 3235 656L3235 753Q3235 869 3181 925Q3127 981 3011 981Q2849 981 2684 901Q2679 913 2658 970Q2637 1028 2636 1030Q2709 1071 2809 1095Q2910 1120 3014 1120Q3219 1120 3309 1030Q3400 941 3400 726L3400 0ZM4116 121Q4281 121 4361 227Q4442 333 4442 530Q4442 752 4364 864Q4287 977 4114 977Q4037 977 3978 944Q3919 911 3883 852Q3847 793 3828 716Q3810 640 3810 549Q3810 421 3841 327Q3873 233 3943 177Q4013 121 4116 121ZM4467 0L4445 159Q4391 76 4301 27Q4211 -22 4100 -22Q3883 -22 3760 132Q3637 287 3637 553Q3637 807 3762 963Q3887 1120 4097 1120Q4206 1120 4302 1072Q4399 1025 4447 945L4444 1040L4444 1523L4609 1533L4609 0L4467 0ZM5683 614L6159 614Q5948 1227 5926 1303Q5926 1303 5683 614ZM6566 0L6388 0L6215 469L5625 469L5446 0L5270 0L5838 1482L6015 1482L6566 0ZM6881 0L6712 0L6712 1097L6852 1097L6873 940Q6938 1021 7035 1070Q7133 1120 7246 1120Q7436 1120 7527 1013Q7618 907 7618 686L7618 0L7451 0Q7451 660 7450 707Q7446 847 7393 912Q7341 977 7218 977Q7089 977 7003 915Q6917 853 6891 754Q6881 687 6881 600L6881 0ZM8324 121Q8489 121 8569 227Q8650 333 8650 530Q8650 752 8572 864Q8495 977 8322 977Q8245 977 8186 944Q8127 911 8091 852Q8055 793 8036 716Q8018 640 8018 549Q8018 421 8049 327Q8081 233 8151 177Q8221 121 8324 121ZM8675 0L8653 159Q8599 76 8509 27Q8419 -22 8308 -22Q8091 -22 7968 132Q7845 287 7845 553Q7845 807 7970 963Q8095 1120 8305 1120Q8414 1120 8510 1072Q8607 1025 8655 945L8652 1040L8652 1523L8817 1533L8817 0L8675 0ZM10504 0L9649 0L9649 1479L10497 1479L10490 1326L9822 1326L9822 842L10457 842L10457 691L9822 691L9822 153L10512 153L10504 0ZM10930 0L10761 0L10761 1097L10901 1097L10922 940Q10987 1021 11084 1070Q11182 1120 11295 1120Q11485 1120 11576 1013Q11667 907 11667 686L11667 0L11500 0Q11500 660 11499 707Q11495 847 11442 912Q11390 977 11267 977Q11138 977 11052 915Q10966 853 10940 754Q10930 687 10930 600L10930 0ZM11964 1097L12132 1097L12132 -139Q12132 -245 12118 -310Q12105 -375 12067 -421Q12030 -466 11966 -484Q11902 -502 11799 -502L11747 -502L11725 -351L11777 -351Q11816 -351 11844 -347Q11873 -342 11893 -335Q11914 -328 11927 -312Q11940 -296 11947 -282Q11955 -267 11958 -238Q11962 -209 11963 -186Q11964 -163 11964 -121L11964 1097ZM11964 1496L12132 1496L12132 1298L11964 1298L11964 1496ZM12512 546Q12512 351 12598 233Q12685 116 12851 116Q13015 116 13098 233Q13182 350 13182 548Q13182 749 13099 864Q13017 980 12848 980Q12684 980 12598 862Q12512 744 12512 546ZM13355 549Q13355 294 13219 135Q13083 -23 12843 -23Q12612 -23 12475 137Q12339 297 12339 548Q12339 804 12476 962Q12613 1120 12852 1120Q13087 1120 13221 961Q13355 803 13355 549ZM13885 8L13451 1097L13628 1097L13974 184L14282 1097L14459 1097Q14015 -125 14000 -163Q13931 -336 13833 -417Q13735 -497 13575 -497Q13527 -497 13474 -489L13464 -347Q13520 -351 13548 -351Q13661 -351 13719 -310Q13778 -268 13824 -154Q13865 -49 13885 8ZM15336 1479L15336 0L15163 0L15163 1479L15336 1479ZM16014 -20Q15852 -20 15784 59Q15716 138 15712 314L15712 973L15549 973L15556 1083L15711 1097L15768 1348L15878 1352L15878 1097L16183 1097L16183 973L15878 973L15878 344Q15878 219 15916 168Q15954 117 16046 117Q16079 117 16189 133L16196 1Q16077 -20 16014 -20Z" fill="#195190" style=""></path></g></g></g></svg>